# Blender v2.79 (sub 0) OBJ File: ''
# www.blender.org
o Box001.004
v 0.312376 0.000000 -0.093227
v 0.312376 0.150961 -0.093227
v 0.312376 0.150961 0.093227
v 0.312376 -0.000000 0.093227
v 0.137446 0.000000 -0.093227
v 0.137446 0.150961 -0.093227
v 0.137446 -0.000000 0.093227
v 0.137446 0.150961 0.093227
v 0.312376 0.466678 0.093227
v 0.137446 0.466678 0.093227
v 0.137446 0.331784 0.093227
v 0.312376 0.331784 0.093227
v 0.312376 0.466678 -0.093227
v 0.312376 0.331784 -0.093227
v 0.137446 0.466678 -0.093227
v 0.137446 0.331784 -0.093227
v -0.220686 0.466678 0.093227
v -0.220686 0.466678 -0.093227
v -0.220686 0.331784 -0.093227
v -0.220686 0.331784 0.093227
v -0.079224 0.331784 -0.093227
v -0.079224 0.466678 -0.093227
v -0.079224 0.331784 0.093227
v -0.079224 0.466678 0.093227
v -0.220686 0.721533 -0.093227
v -0.220686 0.721533 0.093227
v -0.079224 0.721533 0.093227
v -0.079224 0.721533 -0.093227
v -0.220686 0.610671 0.093227
v -0.220686 0.610671 -0.093227
v -0.079224 0.610671 0.093227
v -0.079224 0.610671 -0.093227
v 0.267364 0.721533 -0.093227
v 0.267364 0.721533 0.093227
v 0.267364 0.610671 0.093227
v 0.267364 0.610671 -0.093227
v -0.209142 0.000000 -0.093227
v -0.209142 -0.000000 0.093227
v -0.209142 0.150961 0.093227
v -0.209142 0.150961 -0.093227
vn 1.0000 0.0000 0.0000
vn 0.0000 0.0000 -1.0000
vn 0.0000 -1.0000 -0.0000
vn 0.0000 -0.0000 1.0000
vn -1.0000 0.0000 0.0000
vn 0.0000 1.0000 0.0000
s off
f 1//1 2//1 3//1
f 3//1 4//1 1//1
f 5//2 6//2 2//2
f 2//2 1//2 5//2
f 1//3 4//3 7//3
f 7//3 5//3 1//3
f 4//4 3//4 8//4
f 8//4 7//4 4//4
f 9//4 10//4 11//4
f 11//4 12//4 9//4
f 13//1 9//1 12//1
f 12//1 14//1 13//1
f 15//2 13//2 14//2
f 14//2 16//2 15//2
f 17//5 18//5 19//5
f 19//5 20//5 17//5
f 6//5 8//5 11//5
f 11//5 16//5 6//5
f 16//2 21//2 22//2
f 22//2 15//2 16//2
f 11//3 23//3 21//3
f 21//3 16//3 11//3
f 10//4 24//4 23//4
f 23//4 11//4 10//4
f 15//6 22//6 24//6
f 24//6 10//6 15//6
f 19//2 18//2 22//2
f 22//2 21//2 19//2
f 20//3 19//3 21//3
f 21//3 23//3 20//3
f 17//4 20//4 23//4
f 23//4 24//4 17//4
f 25//6 26//6 27//6
f 27//6 28//6 25//6
f 17//5 29//5 30//5
f 30//5 18//5 17//5
f 24//4 31//4 29//4
f 29//4 17//4 24//4
f 22//1 32//1 31//1
f 31//1 24//1 22//1
f 18//2 30//2 32//2
f 32//2 22//2 18//2
f 13//6 15//6 10//6
f 10//6 9//6 13//6
f 26//5 25//5 30//5
f 30//5 29//5 26//5
f 27//4 26//4 29//4
f 29//4 31//4 27//4
f 33//1 34//1 35//1
f 35//1 36//1 33//1
f 25//2 28//2 32//2
f 32//2 30//2 25//2
f 14//1 12//1 3//1
f 3//1 2//1 14//1
f 16//2 14//2 2//2
f 2//2 6//2 16//2
f 12//4 11//4 8//4
f 8//4 3//4 12//4
f 37//5 38//5 39//5
f 39//5 40//5 37//5
f 28//6 27//6 34//6
f 34//6 33//6 28//6
f 27//4 31//4 35//4
f 35//4 34//4 27//4
f 31//3 32//3 36//3
f 36//3 35//3 31//3
f 32//2 28//2 33//2
f 33//2 36//2 32//2
f 5//3 7//3 38//3
f 38//3 37//3 5//3
f 7//4 8//4 39//4
f 39//4 38//4 7//4
f 8//6 6//6 40//6
f 40//6 39//6 8//6
f 6//2 5//2 37//2
f 37//2 40//2 6//2
