# Blender v2.79 (sub 0) OBJ File: ''
# www.blender.org
o Box001.002
v -0.154640 0.000000 -0.089107
v 0.131371 0.000000 -0.089107
v 0.131371 -0.000000 0.089107
v -0.154640 -0.000000 0.089107
v 0.131371 0.107232 0.089107
v -0.154640 0.107232 0.089107
v 0.298570 -0.000000 0.089107
v 0.298570 0.000000 -0.089107
v 0.298570 0.107232 -0.089107
v 0.298570 0.107232 0.089107
v 0.131371 0.107232 -0.089107
v -0.154640 0.107232 -0.089107
v 0.298570 0.446052 0.089107
v 0.131371 0.446052 0.089107
v 0.131371 0.317120 0.089107
v 0.298570 0.317120 0.089107
v 0.298570 0.446052 -0.089107
v 0.298570 0.317120 -0.089107
v 0.131371 0.446052 -0.089107
v 0.131371 0.317120 -0.089107
v -0.097188 0.446052 0.089107
v -0.097188 0.446052 -0.089107
v -0.097188 0.317120 -0.089107
v -0.097188 0.317120 0.089107
v 0.298570 0.726081 -0.089107
v 0.131371 0.726081 -0.089107
v 0.131371 0.726081 0.089107
v 0.298570 0.726081 0.089107
v 0.131371 0.600764 0.089107
v 0.298570 0.600764 0.089107
v 0.298570 0.600764 -0.089107
v 0.131371 0.600764 -0.089107
v -0.144253 0.726081 0.089107
v -0.144253 0.726081 -0.089107
v -0.144253 0.600764 -0.089107
v -0.144253 0.600764 0.089107
vn 0.0000 -1.0000 -0.0000
vn 0.0000 -0.0000 1.0000
vn 1.0000 -0.0000 0.0000
vn 0.0000 0.0000 -1.0000
vn -1.0000 -0.0000 0.0000
vn 0.0000 1.0000 0.0000
s off
f 1//1 2//1 3//1
f 3//1 4//1 1//1
f 3//2 5//2 6//2
f 6//2 4//2 3//2
f 7//3 8//3 9//3
f 9//3 10//3 7//3
f 2//4 11//4 9//4
f 9//4 8//4 2//4
f 1//5 4//5 6//5
f 6//5 12//5 1//5
f 8//1 7//1 3//1
f 3//1 2//1 8//1
f 7//2 10//2 5//2
f 5//2 3//2 7//2
f 1//4 12//4 11//4
f 11//4 2//4 1//4
f 12//6 6//6 5//6
f 5//6 11//6 12//6
f 13//2 14//2 15//2
f 15//2 16//2 13//2
f 17//3 13//3 16//3
f 16//3 18//3 17//3
f 19//4 17//4 18//4
f 18//4 20//4 19//4
f 21//5 22//5 23//5
f 23//5 24//5 21//5
f 25//6 26//6 27//6
f 27//6 28//6 25//6
f 28//2 27//2 29//2
f 29//2 30//2 28//2
f 30//2 29//2 14//2
f 14//2 13//2 30//2
f 5//2 10//2 16//2
f 16//2 15//2 5//2
f 25//3 28//3 30//3
f 30//3 31//3 25//3
f 31//3 30//3 13//3
f 13//3 17//3 31//3
f 10//3 9//3 18//3
f 18//3 16//3 10//3
f 26//4 25//4 31//4
f 31//4 32//4 26//4
f 32//4 31//4 17//4
f 17//4 19//4 32//4
f 9//4 11//4 20//4
f 20//4 18//4 9//4
f 33//5 34//5 35//5
f 35//5 36//5 33//5
f 29//5 32//5 19//5
f 19//5 14//5 29//5
f 11//5 5//5 15//5
f 15//5 20//5 11//5
f 19//4 20//4 23//4
f 23//4 22//4 19//4
f 20//1 15//1 24//1
f 24//1 23//1 20//1
f 15//2 14//2 21//2
f 21//2 24//2 15//2
f 14//6 19//6 22//6
f 22//6 21//6 14//6
f 27//6 26//6 34//6
f 34//6 33//6 27//6
f 26//4 32//4 35//4
f 35//4 34//4 26//4
f 32//1 29//1 36//1
f 36//1 35//1 32//1
f 29//2 27//2 33//2
f 33//2 36//2 29//2
