# Blender v2.79 (sub 0) OBJ File: ''
# www.blender.org
o Box001.001
v -0.326817 -0.000000 0.097537
v -0.326817 0.000000 -0.097537
v -0.251133 0.000000 -0.097537
v -0.251133 -0.000000 0.097537
v -0.033255 0.000000 -0.097537
v -0.033255 -0.000000 0.097537
v 0.326817 0.000000 -0.097537
v 0.326817 -0.000000 0.097537
v -0.326817 0.117377 0.097537
v -0.251133 0.117377 0.097537
v -0.251133 0.117377 -0.097537
v -0.326817 0.117377 -0.097537
v 0.191320 0.694768 0.097537
v 0.296924 0.617329 0.097537
v 0.296924 0.617329 -0.097537
v 0.191320 0.694768 -0.097537
v -0.033255 0.117377 0.097537
v 0.326817 0.117377 0.097537
v 0.326817 0.117377 -0.097537
v -0.033255 0.117377 -0.097537
v 0.158717 0.562988 0.097537
v 0.158717 0.562988 -0.097537
v 0.253540 0.487032 0.097537
v 0.253540 0.487032 -0.097537
v -0.292416 0.709988 0.097537
v -0.292416 0.709988 -0.097537
v -0.292416 0.564624 -0.097537
v -0.292416 0.564624 0.097537
v -0.073719 0.804922 -0.097537
v -0.073719 0.804922 0.097537
v -0.073719 0.659557 -0.097537
v -0.073719 0.659557 0.097537
vn 0.0000 -1.0000 -0.0000
vn 0.0000 1.0000 0.0000
vn 0.5913 0.8064 0.0000
vn 0.0000 -0.0000 1.0000
vn 1.0000 0.0000 0.0000
vn 0.0000 0.0000 -1.0000
vn -1.0000 -0.0000 0.0000
vn -0.7360 0.6770 0.0000
vn 0.7901 -0.6130 -0.0000
vn 0.9488 -0.3159 0.0000
vn 0.3838 0.9234 0.0000
vn -0.3837 -0.9235 0.0000
vn -0.3982 0.9173 0.0000
vn 0.3982 -0.9173 0.0000
s off
f 1//1 2//1 3//1
f 3//1 4//1 1//1
f 4//1 3//1 5//1
f 5//1 6//1 4//1
f 6//1 5//1 7//1
f 7//1 8//1 6//1
f 9//2 10//2 11//2
f 11//2 12//2 9//2
f 13//3 14//3 15//3
f 15//3 16//3 13//3
f 17//2 18//2 19//2
f 19//2 20//2 17//2
f 1//4 4//4 10//4
f 10//4 9//4 1//4
f 4//4 6//4 17//4
f 17//4 10//4 4//4
f 6//4 8//4 18//4
f 18//4 17//4 6//4
f 8//5 7//5 19//5
f 19//5 18//5 8//5
f 7//6 5//6 20//6
f 20//6 19//6 7//6
f 5//6 3//6 11//6
f 11//6 20//6 5//6
f 3//6 2//6 12//6
f 12//6 11//6 3//6
f 2//7 1//7 9//7
f 9//7 12//7 2//7
f 10//8 21//8 22//8
f 22//8 11//8 10//8
f 17//4 23//4 21//4
f 21//4 10//4 17//4
f 20//9 24//9 23//9
f 23//9 17//9 20//9
f 11//6 22//6 24//6
f 24//6 20//6 11//6
f 25//7 26//7 27//7
f 27//7 28//7 25//7
f 14//4 13//4 21//4
f 21//4 23//4 14//4
f 15//10 14//10 23//10
f 23//10 24//10 15//10
f 16//6 15//6 24//6
f 24//6 22//6 16//6
f 13//11 16//11 29//11
f 29//11 30//11 13//11
f 16//6 22//6 31//6
f 31//6 29//6 16//6
f 22//12 21//12 32//12
f 32//12 31//12 22//12
f 21//4 13//4 30//4
f 30//4 32//4 21//4
f 30//13 29//13 26//13
f 26//13 25//13 30//13
f 29//6 31//6 27//6
f 27//6 26//6 29//6
f 31//14 32//14 28//14
f 28//14 27//14 31//14
f 32//4 30//4 25//4
f 25//4 28//4 32//4
