# Blender v2.79 (sub 0) OBJ File: ''
# www.blender.org
o Box001.003
v 0.310841 -0.000000 0.092769
v 0.310841 0.000000 -0.092769
v 0.310841 0.330154 -0.092769
v 0.310841 0.330154 0.092769
v 0.136771 0.000000 -0.092769
v 0.136771 0.330154 -0.092769
v 0.136771 -0.000000 0.092769
v 0.136771 0.330154 0.092769
v 0.310841 0.464385 0.092769
v 0.136771 0.464385 0.092769
v 0.310841 0.464385 -0.092769
v 0.136771 0.464385 -0.092769
v -0.219602 0.464385 0.092769
v -0.219602 0.464385 -0.092769
v -0.219602 0.330154 -0.092769
v -0.219602 0.330154 0.092769
v 0.310841 0.755924 -0.092769
v 0.136771 0.755924 -0.092769
v 0.136771 0.755924 0.092769
v 0.310841 0.755924 0.092769
v 0.136771 0.625456 0.092769
v 0.310841 0.625456 0.092769
v 0.310841 0.625456 -0.092769
v 0.136771 0.625456 -0.092769
v -0.078835 0.330154 -0.092769
v -0.078835 0.464385 -0.092769
v -0.078835 0.330154 0.092769
v -0.078835 0.464385 0.092769
v -0.219602 0.717988 -0.092769
v -0.219602 0.717988 0.092769
v -0.078835 0.717988 0.092769
v -0.078835 0.717988 -0.092769
vn 1.0000 0.0000 0.0000
vn 0.0000 0.0000 -1.0000
vn 0.0000 -1.0000 -0.0000
vn 0.0000 -0.0000 1.0000
vn -1.0000 -0.0000 0.0000
vn 0.0000 1.0000 0.0000
s off
f 1//1 2//1 3//1
f 3//1 4//1 1//1
f 5//2 6//2 3//2
f 3//2 2//2 5//2
f 2//3 1//3 7//3
f 7//3 5//3 2//3
f 1//4 4//4 8//4
f 8//4 7//4 1//4
f 9//4 10//4 8//4
f 8//4 4//4 9//4
f 11//1 9//1 4//1
f 4//1 3//1 11//1
f 12//2 11//2 3//2
f 3//2 6//2 12//2
f 13//5 14//5 15//5
f 15//5 16//5 13//5
f 17//6 18//6 19//6
f 19//6 20//6 17//6
f 20//4 19//4 21//4
f 21//4 22//4 20//4
f 22//4 21//4 10//4
f 10//4 9//4 22//4
f 17//1 20//1 22//1
f 22//1 23//1 17//1
f 23//1 22//1 9//1
f 9//1 11//1 23//1
f 18//2 17//2 23//2
f 23//2 24//2 18//2
f 24//2 23//2 11//2
f 11//2 12//2 24//2
f 21//5 24//5 12//5
f 12//5 10//5 21//5
f 5//5 7//5 8//5
f 8//5 6//5 5//5
f 6//2 25//2 26//2
f 26//2 12//2 6//2
f 8//3 27//3 25//3
f 25//3 6//3 8//3
f 10//4 28//4 27//4
f 27//4 8//4 10//4
f 12//6 26//6 28//6
f 28//6 10//6 12//6
f 24//5 21//5 19//5
f 19//5 18//5 24//5
f 15//2 14//2 26//2
f 26//2 25//2 15//2
f 16//3 15//3 25//3
f 25//3 27//3 16//3
f 13//4 16//4 27//4
f 27//4 28//4 13//4
f 29//6 30//6 31//6
f 31//6 32//6 29//6
f 14//5 13//5 30//5
f 30//5 29//5 14//5
f 13//4 28//4 31//4
f 31//4 30//4 13//4
f 28//1 26//1 32//1
f 32//1 31//1 28//1
f 26//2 14//2 29//2
f 29//2 32//2 26//2
